<svg width="198" height="51" viewBox="0 0 198 51" fill="none" xmlns="http://www.w3.org/2000/svg">
<g clip-path="url(#clip0_1_1159)">
<path d="M63.9774 14.8169C59.4101 14.8169 57.0186 18.0858 57.0186 21.4573C57.0186 24.1637 58.7061 26.9409 62.3253 27.8183L70.7594 29.8207C71.849 30.0683 72.3408 30.8396 72.3408 31.6144C72.3408 32.5625 71.6014 33.4752 70.3737 33.4752H57.9348V38.3609H70.5506C75.2241 38.3609 77.6475 34.9859 77.6475 31.5436C77.6475 28.7664 75.9599 25.922 72.3054 25.0765L63.9066 23.1095C62.9231 22.8618 62.4314 22.0906 62.4314 21.3512C62.4314 20.4738 63.0647 19.6637 64.3276 19.6637H76.1014V14.8133H63.9774V14.8169ZM90.4401 20.3677C88.2609 20.3677 86.4 21.3512 85.2396 22.968H85.0981V13.0586H80.3539V38.3609H85.0981V29.2936C85.0981 26.6579 86.9271 25.0057 89.0675 25.0057C91.0345 25.0057 92.6513 26.4102 92.6513 28.9433V38.3609H97.3955V28.2393C97.3955 23.2156 94.689 20.3677 90.4366 20.3677H90.4401ZM113.811 23.1095H113.634C112.544 21.5281 110.542 20.3323 108.012 20.3323C103.056 20.2969 99.649 24.2345 99.649 29.6438C99.649 35.1628 103.233 38.8845 107.977 38.8845C110.542 38.8491 112.544 37.6534 113.634 36.0366H113.811V38.3574H118.52V20.8559H113.811V23.1059V23.1095ZM109.137 34.3915C106.36 34.3915 104.429 32.3537 104.429 29.612C104.429 26.8702 106.36 24.8324 109.137 24.8324C111.879 24.8324 113.811 26.9055 113.811 29.612C113.811 32.2122 111.95 34.3915 109.137 34.3915ZM139.219 20.863H134.054L130.612 27.0117H126.993V13.0621H122.248V38.3645H126.993V31.3702H132.756C133.633 31.3702 134.16 31.8266 134.16 32.6722V38.3645H138.904V31.0908C138.904 28.8053 137.5 27.4008 135.6 27.086L139.219 20.8665V20.863ZM155.242 23.113H155.065C153.975 21.5316 151.973 20.3358 149.444 20.3358C144.487 20.3005 141.08 24.238 141.08 29.6473C141.08 35.1663 144.664 38.8881 149.408 38.8881C151.973 38.8527 153.975 37.6569 155.065 36.0401H155.242V38.3609H159.951V20.8594H155.242V23.1095V23.113ZM150.569 34.3951C147.791 34.3951 145.86 32.3573 145.86 29.6155C145.86 26.8737 147.791 24.8359 150.569 24.8359C153.31 24.8359 155.242 26.9091 155.242 29.6155C155.242 32.2158 153.381 34.3951 150.569 34.3951ZM178.294 24.7298V20.863H163.114V25.4303H171.898L162.76 34.4623V38.3645H178.645V33.7618H169.192L178.294 24.7298ZM180.824 30.2806C180.824 35.5519 184.164 38.8916 189.399 38.8916C194.671 38.8916 197.94 35.5519 197.94 30.2806V20.863H193.196V30.2098C193.196 32.4599 191.862 34.2854 189.399 34.2854C186.905 34.2854 185.568 32.4563 185.568 30.2098V20.863H180.824V30.2806Z" fill="#FDFAE9"/>
<path d="M0 36.4508C6.02487 38.7327 13.1323 35.4814 20.0912 32.3009C28.2847 28.5544 37.7695 24.9671 46.0338 27.2631C45.9136 30.4118 45.1918 33.4012 43.9784 36.1288C38.1198 34.4873 30.1491 37.2716 23.7103 40.215C18.4496 42.6207 13.1252 45.0547 7.89283 45.971C4.50362 43.5476 1.7689 40.2681 0 36.4508Z" fill="#FB6300"/>
<path d="M15.7466 49.6641C17.1935 49.0485 18.6476 48.3834 20.0945 47.7219C27.7574 44.2194 34.4651 40.2217 40.8968 41.2406C36.4781 46.8551 29.6183 50.4601 21.92 50.4601C19.7867 50.4601 17.7207 50.1806 15.7501 49.6641H15.7466Z" fill="#F53300"/>
<path fill-rule="evenodd" clip-rule="evenodd" d="M23.0663 13C29.4131 13 34.7764 17.2029 36.5241 22.9801C31.419 23.6346 26.1831 25.7467 21.4354 27.9154C17.5615 29.6878 13.6345 31.4815 9.92337 32.0864C9.32548 30.5263 9 28.8317 9 27.0628C9 19.2973 15.2973 13 23.0627 13H23.0663Z" fill="#FEA700"/>
<path fill-rule="evenodd" clip-rule="evenodd" d="M46.6441 7.82207C42.3245 7.82207 38.8221 4.31965 38.8221 0C38.8221 4.31965 35.3197 7.82207 31 7.82207C35.3197 7.82207 38.8221 11.3245 38.8221 15.6441C38.8221 11.3245 42.3245 7.82207 46.6441 7.82207Z" fill="#FED933"/>
<path fill-rule="evenodd" clip-rule="evenodd" d="M47.1518 2.76705C45.6234 2.76705 44.3852 1.52882 44.3852 0.000488281C44.3852 1.52882 43.147 2.76705 41.6187 2.76705C43.147 2.76705 44.3852 4.00528 44.3852 5.53361C44.3852 4.00528 45.6234 2.76705 47.1518 2.76705Z" fill="#FED933"/>
<path d="M59.9694 48.6028C60.1463 48.6028 60.2913 48.4613 60.2913 48.2809C60.2913 48.104 60.1498 47.959 59.9694 47.959C59.7854 47.959 59.6475 48.1005 59.6475 48.2809C59.6475 48.4578 59.7819 48.6028 59.9694 48.6028ZM67.3351 48.6028C67.512 48.6028 67.657 48.4613 67.657 48.2809C67.657 48.104 67.5155 47.959 67.3351 47.959C67.1511 47.959 67.0132 48.1005 67.0132 48.2809C67.0132 48.4578 67.1476 48.6028 67.3351 48.6028ZM74.7008 48.6028C74.8777 48.6028 75.0227 48.4613 75.0227 48.2809C75.0227 48.104 74.8812 47.959 74.7008 47.959C74.5168 47.959 74.3789 48.1005 74.3789 48.2809C74.3789 48.4578 74.5133 48.6028 74.7008 48.6028ZM83.7965 43.5473H81.925V48.5321H83.7965C85.1727 48.5321 86.1456 47.4141 86.1456 46.0379C86.1456 44.6617 85.1691 43.5438 83.7965 43.5438V43.5473ZM83.7965 48.1748H82.3V43.9011H83.7965C84.971 43.9011 85.7776 44.8563 85.7776 46.0379C85.7776 47.2196 84.9746 48.1748 83.7965 48.1748ZM96.0974 48.5321H96.5325L95.2943 46.4377C95.9276 46.2679 96.391 45.6983 96.391 45.019C96.391 44.2089 95.7295 43.5438 94.9158 43.5438H92.9488V48.5285H93.3273V46.4837H94.9016L96.0974 48.5285V48.5321ZM93.3273 43.9046H94.9158C95.5207 43.9046 96.0125 44.4035 96.0125 45.0226C96.0125 45.6346 95.5207 46.1334 94.9158 46.1334H93.3273V43.9046ZM103.541 48.1783V46.1971H105.819V45.8398H103.541V43.9011H106V43.5438H103.166V48.5285H106.035V48.1712H103.541V48.1783ZM116.235 48.5356H116.634L114.703 43.5509H114.303L112.364 48.5356H112.764L113.249 47.2691H115.75L116.235 48.5356ZM113.394 46.9118L114.505 44.0143L115.615 46.9118H113.394ZM127.718 43.5509H127.241L125.461 46.4978L123.682 43.5509H123.211V48.5356H123.59V44.1063L125.433 47.17H125.497L127.34 44.1063V48.5356H127.718V43.5509ZM139.365 45.9495C139.75 45.7443 140.005 45.3445 140.005 44.8598C140.005 44.1417 139.421 43.5509 138.696 43.5509H136.708V48.5356H138.859C139.612 48.5356 140.217 47.9307 140.217 47.1736C140.217 46.604 139.86 46.1405 139.361 45.9495H139.365ZM138.696 43.9046C139.209 43.9046 139.63 44.3327 139.63 44.8598C139.63 45.387 139.209 45.815 138.696 45.815H137.086V43.9046H138.696ZM138.859 48.1783H137.086V46.1688H138.859C139.4 46.1688 139.842 46.6181 139.842 47.1736C139.842 47.729 139.4 48.1783 138.859 48.1783ZM146.996 43.5509V48.5356H147.374V43.5509H146.996ZM159.205 46.2148H156.703V46.5721H158.819C158.741 47.5061 158.009 48.2526 156.795 48.2526C155.458 48.2526 154.552 47.2691 154.552 46.045C154.552 44.8209 155.458 43.8374 156.767 43.8374C157.549 43.8374 158.249 44.2513 158.575 44.8775L158.911 44.6794C158.497 43.9612 157.694 43.4766 156.767 43.4766C155.249 43.4766 154.174 44.6228 154.174 46.0485C154.174 47.4743 155.249 48.6205 156.795 48.6205C158.285 48.6205 159.201 47.6158 159.201 46.4129V46.2219L159.205 46.2148ZM170.745 46.2148H168.244V46.5721H170.359C170.282 47.5061 169.549 48.2526 168.336 48.2526C166.998 48.2526 166.093 47.2691 166.093 46.045C166.093 44.8209 166.998 43.8374 168.307 43.8374C169.089 43.8374 169.79 44.2513 170.115 44.8775L170.451 44.6794C170.037 43.9612 169.234 43.4766 168.307 43.4766C166.79 43.4766 165.714 44.6228 165.714 46.0485C165.714 47.4743 166.79 48.6205 168.336 48.6205C169.825 48.6205 170.741 47.6158 170.741 46.4129V46.2219L170.745 46.2148ZM177.92 48.1818V46.2007H180.198V45.8434H177.92V43.9046H180.378V43.5473H177.545V48.5321H180.414V48.1748H177.92V48.1818ZM190.334 48.5392H190.769L189.531 46.4448C190.164 46.275 190.627 45.7054 190.627 45.0261C190.627 44.216 189.966 43.5509 189.152 43.5509H187.185V48.5356H187.564V46.4908H189.138L190.334 48.5356V48.5392ZM187.564 43.9117H189.152C189.757 43.9117 190.249 44.4105 190.249 45.0297C190.249 45.6417 189.757 46.1405 189.152 46.1405H187.564V43.9117ZM197.615 48.6134C197.791 48.6134 197.936 48.4719 197.936 48.2915C197.936 48.1146 197.795 47.9696 197.615 47.9696C197.431 47.9696 197.293 48.1111 197.293 48.2915C197.293 48.4684 197.427 48.6134 197.615 48.6134Z" fill="#FDFAE9" stroke="#FDFAE9" stroke-width="0.7" stroke-miterlimit="2.61313"/>
</g>
<defs>
<clipPath id="clip0_1_1159">
<rect width="198" height="50.4604" fill="white"/>
</clipPath>
</defs>
</svg>
